<?xml version="1.0" encoding="UTF-8" standalone="no"?>
<svg
   width="16"
   height="16"
   viewBox="0 0 16 16"
   version="1.1"
   xmlns="http://www.w3.org/2000/svg">
  <path
     d="M 2,4 H 5 C 5.2,2.4 6.4,1 8,1 C 9.6,1 10.8,2.4 11,4 H 14 V 7 C 12.4,7.2 11,8.4 11,10 C 11,11.6 12.4,12.8 14,13 V 15 H 10.5 C 10.3,13.7 9.3,12.7 8,12.7 C 6.7,12.7 5.7,13.7 5.5,15 H 2 V 11.5 C 3.3,11.3 4.3,10.3 4.3,9 C 4.3,7.7 3.3,6.7 2,6.5 Z"
     style="fill:#ffffff;stroke:none" />
  <path
     d="M 7,6 H 9 V 8 H 11 V 10 H 9 V 12 H 7 V 10 H 5 V 8 H 7 Z"
     style="fill:#607d8b;fill-opacity:1;stroke:none" />
</svg>
